HIERARCHY
ROOT hip
{
  OFFSET 0 0 0
  CHANNELS 6 Xposition Yposition Zposition Zrotation Yrotation Xrotation
  JOINT abdomen
  {
    OFFSET 0 20.6881 -0.73152
    CHANNELS 3 Zrotation Xrotation Yrotation
    JOINT chest
    {
      OFFSET 0 11.7043 -0.48768
      CHANNELS 3 Zrotation Xrotation Yrotation
      JOINT neck
      {
        OFFSET 0 22.1894 -2.19456
        CHANNELS 3 Zrotation Xrotation Yrotation
        JOINT head
        {
          OFFSET -0.24384 7.07133 1.2192
          CHANNELS 3 Zrotation Xrotation Yrotation
          JOINT leftEye
          {
            OFFSET 4.14528 8.04674 8.04672
            CHANNELS 3 Zrotation Xrotation Yrotation
            End Site
            {
              OFFSET 1 0 0
            }
          }
          JOINT rightEye
          {
            OFFSET -3.6576 8.04674 8.04672
            CHANNELS 3 Zrotation Xrotation Yrotation
            End Site
            {
              OFFSET 1 0 0
            }
          }
        }
      }
      JOINT rCollar
      {
        OFFSET -2.68224 19.2634 -4.8768
        CHANNELS 3 Zrotation Xrotation Yrotation
        JOINT rShldr
        {
          OFFSET -8.77824 -1.95073 1.46304
          CHANNELS 3 Zrotation Xrotation Yrotation
          JOINT rForeArm
          {
            OFFSET -28.1742 -1.7115 0.48768
            CHANNELS 3 Zrotation Xrotation Yrotation
            JOINT rHand
            {
              OFFSET -22.5879 0.773209 7.07136
              CHANNELS 3 Zrotation Xrotation Yrotation
              JOINT rThumb1
              {
                OFFSET -1.2192 -0.487915 3.41376
                CHANNELS 3 Zrotation Xrotation Yrotation
                JOINT rThumb2
                {
                  OFFSET -3.37035 -0.52449 3.41376
                  CHANNELS 3 Zrotation Xrotation Yrotation
                  End Site
                  {
                    OFFSET -1.78271 -1.18214 1.43049
                  }
                }
              }
              JOINT rIndex1
              {
                OFFSET -7.75947 0.938293 5.60832
                CHANNELS 3 Zrotation Xrotation Yrotation
                JOINT rIndex2
                {
                  OFFSET -2.54057 -0.884171 1.56538
                  CHANNELS 3 Zrotation Xrotation Yrotation
                  End Site
                  {
                    OFFSET -1.62519 -0.234802 1.16502
                  }
                }
              }
              JOINT rMid1
              {
                OFFSET -8.24714 1.18213 3.41376
                CHANNELS 3 Zrotation Xrotation Yrotation
                JOINT rMid2
                {
                  OFFSET -3.10165 -0.590103 1.0647
                  CHANNELS 3 Zrotation Xrotation Yrotation
                  End Site
                  {
                    OFFSET -2.48547 -0.328903 0.83742
                  }
                }
              }
              JOINT rRing1
              {
                OFFSET -8.82822 0.546677 1.51678
                CHANNELS 3 Zrotation Xrotation Yrotation
                JOINT rRing2
                {
                  OFFSET -2.60934 -0.819778 -0.0198488
                  CHANNELS 3 Zrotation Xrotation Yrotation
                  End Site
                  {
                    OFFSET -2.33842 -0.294052 0.168128
                  }
                }
              }
              JOINT rPinky1
              {
                OFFSET -8.27202 -0.0477905 -0.4584
                CHANNELS 3 Zrotation Xrotation Yrotation
                JOINT rPinky2
                {
                  OFFSET -1.82734 -0.647385 -0.700984
                  CHANNELS 3 Zrotation Xrotation Yrotation
                  End Site
                  {
                    OFFSET -1.69225 -0.51767 -0.607171
                  }
                }
              }
            }
          }
        }
      }
      JOINT lCollar
      {
        OFFSET 2.68224 19.2634 -4.8768
        CHANNELS 3 Zrotation Xrotation Yrotation
        JOINT lShldr
        {
          OFFSET 8.77824 -1.95073 1.46304
          CHANNELS 3 Zrotation Xrotation Yrotation
          JOINT lForeArm
          {
            OFFSET 28.1742 -1.7115 0.48768
            CHANNELS 3 Zrotation Xrotation Yrotation
            JOINT lHand
            {
              OFFSET 22.5879 0.773209 7.07136
              CHANNELS 3 Zrotation Xrotation Yrotation
              JOINT lThumb1
              {
                OFFSET 1.2192 -0.487915 3.41376
                CHANNELS 3 Zrotation Xrotation Yrotation
                JOINT lThumb2
                {
                  OFFSET 3.37035 -0.52449 3.41376
                  CHANNELS 3 Zrotation Xrotation Yrotation
                  End Site
                  {
                    OFFSET 1.78271 -1.18214 1.43049
                  }
                }
              }
              JOINT lIndex1
              {
                OFFSET 7.75947 0.938293 5.60832
                CHANNELS 3 Zrotation Xrotation Yrotation
                JOINT lIndex2
                {
                  OFFSET 2.54057 -0.884171 1.56538
                  CHANNELS 3 Zrotation Xrotation Yrotation
                  End Site
                  {
                    OFFSET 1.62519 -0.234802 1.16502
                  }
                }
              }
              JOINT lMid1
              {
                OFFSET 8.24714 1.18213 3.41376
                CHANNELS 3 Zrotation Xrotation Yrotation
                JOINT lMid2
                {
                  OFFSET 3.10165 -0.590103 1.0647
                  CHANNELS 3 Zrotation Xrotation Yrotation
                  End Site
                  {
                    OFFSET 2.48547 -0.328903 0.83742
                  }
                }
              }
              JOINT lRing1
              {
                OFFSET 8.82822 0.546677 1.51678
                CHANNELS 3 Zrotation Xrotation Yrotation
                JOINT lRing2
                {
                  OFFSET 2.60934 -0.819778 -0.0198488
                  CHANNELS 3 Zrotation Xrotation Yrotation
                  End Site
                  {
                    OFFSET 2.33842 -0.294052 0.168128
                  }
                }
              }
              JOINT lPinky1
              {
                OFFSET 8.27202 -0.0477905 -0.4584
                CHANNELS 3 Zrotation Xrotation Yrotation
                JOINT lPinky2
                {
                  OFFSET 1.82734 -0.647385 -0.700984
                  CHANNELS 3 Zrotation Xrotation Yrotation
                  End Site
                  {
                    OFFSET 1.69225 -0.51767 -0.607171
                  }
                }
              }
            }
          }
        }
      }
    }
  }
  JOINT rButtock
  {
    OFFSET -8.77824 4.35084 1.2192
    CHANNELS 3 Zrotation Xrotation Yrotation
    JOINT rThigh
    {
      OFFSET 0 -1.70687 -2.19456
      CHANNELS 3 Zrotation Xrotation Yrotation
      JOINT rShin
      {
        OFFSET 0 -36.8199 0.73152
        CHANNELS 3 Zrotation Xrotation Yrotation
        JOINT rFoot
        {
          OFFSET 0.73152 -45.1104 -5.12064
          CHANNELS 3 Zrotation Xrotation Yrotation
          End Site
          {
            OFFSET -1.1221 -3.69964 12.103
          }
        }
      }
    }
  }
  JOINT lButtock
  {
    OFFSET 8.77824 4.35084 1.2192
    CHANNELS 3 Zrotation Xrotation Yrotation
    JOINT lThigh
    {
      OFFSET 0 -1.70687 -2.19456
      CHANNELS 3 Zrotation Xrotation Yrotation
      JOINT lShin
      {
        OFFSET 0 -36.8199 0.73152
        CHANNELS 3 Zrotation Xrotation Yrotation
        JOINT lFoot
        {
          OFFSET -0.73152 -45.1104 -5.12064
          CHANNELS 3 Zrotation Xrotation Yrotation
          End Site
          {
            OFFSET 1.1221 -3.69964 12.103
          }
        }
      }
    }
  }
}
MOTION
Frames:	6
Frame Time:	0.03333
0.0 0.0 0.0 0.0 0.0 0.0 0.0 0.0 0.0 0.0 0.0 0.0 0.0 0.0 0.0 0.0 0.0 0.0 0.0 0.0 0.0 0.0 0.0 0.0 0.0 0.0 0.0 0.0 0.0 0.0 0.0 0.0 0.0 0.0 0.0 0.0 0.0 0.0 0.0 0.0 0.0 0.0 0.0 0.0 0.0 0.0 0.0 0.0 0.0 0.0 0.0 0.0 0.0 0.0 0.0 0.0 0.0 0.0 0.0 0.0 0.0 0.0 0.0 0.0 0.0 0.0 0.0 0.0 0.0 0.0 0.0 0.0 0.0 0.0 0.0 0.0 0.0 0.0 0.0 0.0 0.0 0.0 0.0 0.0 0.0 0.0 0.0 0.0 0.0 0.0 0.0 0.0 0.0 0.0 0.0 0.0 0.0 0.0 0.0 0.0 0.0 0.0 0.0 0.0 0.0 0.0 0.0 0.0 0.0 0.0 0.0 0.0 0.0 0.0 0.0 0.0 0.0 0.0 0.0 0.0 0.0 0.0 0.0 0.0 0.0 0.0 0.0 0.0 0.0 0.0 0.0 0.0
-0.0114 63.77159999999999 -0.1332 178.972239 41.100245 178.227437 -0.91344 2.678536 -0.0 1.762566 9.87678 -8.195199 10.693075 -14.887116 97.924143 -3.730219 -32.248939 -15.140592 179.150839 -0.566247 67.392694 45.423337 5.755401 13.696835 -79.629271 -35.9932 161.111014 6.208335 16.253798 15.950294 -110.146738 83.191536 -111.15476 134.01687 -20.789951 34.757226 2.76264 -13.972419 38.365297 -75.187673 64.729925 -161.054193 -55.405394 -64.916391 -102.725571 -163.306373 -13.504859 -49.948688 106.593251 67.361056 -38.93431 -114.547026 38.617893 -143.280404 -92.526183 53.270171 -86.913008 91.530599 21.455081 -23.384364 -168.746504 26.256192 -65.213302 -2.176805 17.651744 10.578407 -55.802793 40.451846 -29.570955 76.699565 84.415192 -92.726841 166.136223 85.523819 31.927848 -164.722682 -4.086896 -60.255051 171.201037 7.856611 -35.50278 121.644532 -50.436449 134.026763 53.498812 -30.511348 -23.867253 71.036036 73.591501 -62.44092 -50.972004 6.99914 -103.270946 174.841083 -77.240806 -13.620385 95.681885 -1.895046 152.651962 78.15687 13.817271 -46.261969 117.089124 16.39999 96.457879 89.483099 45.976346 -175.934045 9.393122 -46.797831 -1.435705 -17.096036 47.211352 -0.0 3.623754 -6.8228 41.699862 74.801066 -0.039151 -96.211747 -1.780487 -63.510874 -0.0 1.789371 63.823808 115.267028 6.686741 -2.755606 62.188933 -76.362226 53.369332 73.794363
1.6779 59.896499999999996 -2.9181 -7.126114 -59.978794 10.033141 -3.601958 20.34202 10.264113 3.355754 -14.445257 -2.444625 1.890534 25.767194 16.120634 -11.894255 -34.516591 -27.960277 -29.05864 -0.520568 2.008455 -36.736755 -2.158384 6.494127 -153.014572 17.622805 158.507067 -35.040851 10.161966 11.146708 -1.499982 -6.156079 -114.106337 172.167432 -15.131165 139.434051 -2.592988 18.988748 2.049825 -93.44009 28.329142 58.440295 -136.730409 35.963305 122.531814 -179.355663 -4.020258 138.853443 -8.959677 48.17547 7.196026 -167.406242 40.042346 134.534239 -84.421456 -63.909991 -90.710625 -5.176249 -57.084209 -68.369662 -84.767693 57.81869 112.470577 -158.012956 -54.630618 -176.531817 147.91713 21.996722 -154.350559 52.1206 10.381125 -7.346149 175.740054 -11.05195 104.889056 5.119224 1.1941 4.763464 5.565662 12.781302 4.078705 30.829903 31.450589 -7.653702 -71.275284 -87.171579 -32.180937 9.927504 72.794879 -8.424576 -1.264276 -32.490569 10.099034 170.05504 -4.420075 -150.564455 -10.291214 -0.06719 -0.840018 141.652037 -5.475361 -171.471236 145.634094 -2.676201 149.583903 22.595075 -24.579666 -21.705488 57.992673 36.892065 33.495957 -119.112229 -3.753752 8.7314 86.605047 17.142871 33.626281 -85.505581 -32.286397 -155.536113 -164.001023 49.264829 -1.844391 -161.568858 8.783646 114.617855 86.685992 -12.381704 90.368312 -75.521213 10.310499 -167.931571
2.0353 61.9483 -3.8753 -2.713463 -63.184599 9.578404 -14.010115 11.956946 -79.799378 8.578799 13.813681 83.045613 5.521033 31.93204 91.751216 -48.69642 8.522722 -109.719294 -1.727929 -0.7209 45.28971 3.356508 -2.320829 -69.315183 -153.696278 8.721833 162.877267 -111.039165 -81.776628 -82.360345 -89.74383 0.079247 -17.752557 72.960896 -63.33084 45.416597 -167.182014 -19.632234 80.003695 -138.46024 -25.817415 88.006836 -3.042856 -22.905109 -19.644488 -47.889473 62.13854 62.00329 72.640119 -67.877912 86.349785 157.826008 18.580076 -166.469192 -19.142473 38.133427 27.94059 -161.598295 -4.35974 156.828271 -160.603209 1.485752 -174.80328 170.612805 32.760464 137.749964 -3.215265 -18.291548 1.995711 97.454484 -5.403345 -173.284436 176.227125 -34.15295 95.751126 8.689837 -5.126697 4.295106 70.498065 61.19953 -37.253512 134.844012 -6.775726 -75.782368 168.720792 -22.903561 -126.387499 33.469518 -1.982544 16.844854 125.751501 1.537041 -157.273703 158.771574 69.446673 153.662382 123.286279 3.394965 175.072496 -59.280675 3.680155 11.018055 167.394951 -9.166498 116.951021 -114.327041 41.502278 110.526526 -18.22501 -0.116058 0.0 -27.132759 -54.065268 -32.32958 -48.78225 83.824782 -51.002151 25.785722 -24.190089 106.642645 171.046257 66.594594 6.807453 -143.304677 20.75727 -64.566198 -86.614611 38.288757 -131.46219 -70.118596 -31.969121 -154.319224
2.138 61.5959 -5.0577 -11.563008 -66.893317 18.651138 -13.310891 14.007202 25.713331 13.978907 -11.246898 -23.134046 7.202587 36.044445 115.013103 -53.582522 30.605874 -127.789314 38.506985 -8.775938 -24.781069 -26.220892 18.683922 -70.470882 -156.608528 -64.044769 178.025767 -95.685407 -47.606388 -104.584391 -6.368011 24.033706 -116.938632 154.999884 -19.344764 122.958588 175.900543 2.739918 81.830249 10.167874 -71.601176 5.399522 15.245177 -42.794693 4.134588 12.54472 79.323453 18.691884 -81.258072 28.978344 55.51639 -117.779183 70.425783 162.88726 -33.133469 79.635688 57.435501 149.584095 -39.404748 174.743159 -133.234051 61.275043 159.871468 -52.293567 -22.098184 84.579372 2.740463 25.512244 -4.576138 -78.92424 -8.625112 -45.134904 47.273374 -1.124267 -108.86478 -6.900549 -51.951263 5.378863 2.968193 -8.81145 6.842324 52.991757 43.2572 -42.990254 140.164063 26.6833 -95.105028 -12.029372 -35.946898 -50.744529 26.637538 55.587323 -34.359582 119.089776 68.695069 -62.977814 118.017431 -3.502463 -154.816133 -45.791108 38.929569 -15.276818 7.678437 28.645101 9.469905 -106.092094 -62.994021 -70.533281 -153.088657 72.218177 -28.05955 148.432951 8.740443 4.645661 -57.953785 81.993799 -24.169267 157.233016 -69.679815 -107.962996 -177.269663 74.974851 -2.397893 -148.606347 23.924086 -13.283463 38.350591 82.607107 19.156994 63.814301 -55.636677 -16.643325
3.2181 60.6685 -5.4394 -20.870387 -72.718989 26.335541 -6.645173 21.839931 17.388865 8.823135 -10.792922 -25.920748 -33.640765 28.581225 -64.046574 60.996024 10.822066 34.908492 14.641905 -4.382367 -33.168924 -141.977295 -25.00812 -65.534687 -10.842737 11.493185 14.467111 -60.159622 55.932988 113.706284 132.341834 -57.117734 -132.539783 -3.595929 57.003604 -10.892969 -172.194251 19.937509 77.558608 -61.838402 1.831675 28.309293 -97.485388 42.166899 68.015208 -18.113804 -46.417839 -29.530994 116.592277 -43.340072 104.748116 -10.625202 -46.240529 5.651078 -52.233096 62.525745 94.569841 -101.792496 -57.332629 -85.847994 -93.226801 -69.758456 -68.847306 107.32943 41.467299 -31.771686 88.02923 78.724087 -91.77825 86.528185 14.905118 -75.220856 79.090338 24.212563 96.131461 -148.061006 -72.122286 -130.087396 174.64036 6.370505 -91.025667 -41.45639 -46.95723 -54.778311 142.826379 1.639615 -106.738264 -6.985799 -28.364639 -26.971241 20.59029 40.772972 -20.645652 -18.362405 -6.480513 -24.373221 30.964122 -14.185994 6.660787 -39.352161 28.031964 5.375924 -11.848019 26.334845 23.999416 103.324568 23.629997 -138.568362 2.85284 10.275035 -15.608898 -45.830289 -68.806512 -44.130129 -65.952979 71.105474 -9.819977 16.275095 -36.65103 98.054605 5.559678 11.913537 -8.183667 52.268288 -47.093875 60.456949 117.306779 75.937672 28.977681 -80.923453 -37.658612 -166.422282
